<svg xmlns="http://www.w3.org/2000/svg" viewBox="0 0 100 100">
  <circle cx="50" cy="50" r="48" fill="#1E5A7D" stroke="#075985" stroke-width="2"/>
  
  <path d="M 15,38 L 20,32 L 28,34 L 36,29 L 44,33 L 52,28 L 60,32 L 68,30 L 76,34 L 82,38 L 85,38 L 85,68 L 15,68 Z" 
        fill="#E0F2FE" stroke="#0EA5E9" stroke-width="1.5"/>
  
  <line x1="28" y1="34" x2="26" y2="68" stroke="#94A3B8" stroke-width="0.5" opacity="0.6"/>
  <line x1="44" y1="33" x2="42" y2="68" stroke="#94A3B8" stroke-width="0.5" opacity="0.6"/>
  <line x1="60" y1="32" x2="58" y2="68" stroke="#94A3B8" stroke-width="0.5" opacity="0.6"/>
  <line x1="76" y1="34" x2="74" y2="68" stroke="#94A3B8" stroke-width="0.5" opacity="0.6"/>
  
  <line x1="15" y1="48" x2="85" y2="48" stroke="#BAE6FD" stroke-width="0.8" opacity="0.5"/>
  <line x1="15" y1="56" x2="85" y2="56" stroke="#BAE6FD" stroke-width="0.8" opacity="0.5"/>
  
  <path d="M 20,32 L 28,34 L 36,29 L 44,33 L 52,28 L 60,32 L 68,30 L 76,34" 
        fill="none" stroke="#F0F9FF" stroke-width="1.2" opacity="0.8"/>
  
  <line x1="15" y1="68" x2="85" y2="68" stroke="#0284C7" stroke-width="2"/>
</svg>
